<?xml version="1.0" encoding="UTF-8" standalone="no"?>
<!-- Created with Inkscape (http://www.inkscape.org/) -->

<svg
   width="240mm"
   height="120mm"
   viewBox="0 0 240 120"
   version="1.1"
   id="svg8"
   inkscape:version="1.3 (0e150ed6c4, 2023-07-21)"
   sodipodi:docname="template.svg"
   xmlns:inkscape="http://www.inkscape.org/namespaces/inkscape"
   xmlns:sodipodi="http://sodipodi.sourceforge.net/DTD/sodipodi-0.dtd"
   xmlns="http://www.w3.org/2000/svg"
   xmlns:svg="http://www.w3.org/2000/svg"
   xmlns:rdf="http://www.w3.org/1999/02/22-rdf-syntax-ns#"
   xmlns:cc="http://creativecommons.org/ns#"
   xmlns:dc="http://purl.org/dc/elements/1.1/">
  <defs
     id="defs2" />
  <sodipodi:namedview
     id="base"
     pagecolor="#ffffff"
     bordercolor="#666666"
     borderopacity="1.0"
     inkscape:pageopacity="0.0"
     inkscape:pageshadow="2"
     inkscape:zoom="0.99437388"
     inkscape:cx="284.27627"
     inkscape:cy="182.72055"
     inkscape:document-units="mm"
     inkscape:current-layer="layer1"
     showgrid="false"
     showborder="true"
     width="200mm"
     showguides="true"
     inkscape:guide-bbox="true"
     inkscape:window-width="2520"
     inkscape:window-height="995"
     inkscape:window-x="20"
     inkscape:window-y="65"
     inkscape:window-maximized="1"
     inkscape:showpageshadow="2"
     inkscape:pagecheckerboard="0"
     inkscape:deskcolor="#d1d1d1">
    <inkscape:grid
       type="xygrid"
       id="grid815"
       units="mm"
       spacingx="10"
       spacingy="10"
       empspacing="4"
       dotted="false"
       originx="0"
       originy="0"
       visible="false" />
  </sodipodi:namedview>
  <metadata
     id="metadata5">
    <rdf:RDF>
      <cc:Work
         rdf:about="">
        <dc:format>image/svg+xml</dc:format>
        <dc:type
           rdf:resource="http://purl.org/dc/dcmitype/StillImage" />
        <dc:title />
      </cc:Work>
    </rdf:RDF>
  </metadata>
  <g
     inkscape:label="Layer 1"
     inkscape:groupmode="layer"
     id="layer1"
     transform="translate(0,-177)">
    <g
       id="g6"
       transform="matrix(2.6359455,0,0,2.6359455,-104.65565,-415.81805)">
      <path
         style="fill:none;stroke:#000000;stroke-width:0.208;stroke-linecap:round;stroke-linejoin:round;stroke-dasharray:none;paint-order:fill markers stroke"
         d="m 77.695456,254.1633 c -0.177387,0.35477 -0.202129,0.8443 -0.532159,1.06432 -0.516583,0.34438 -1.245508,0.0686 -1.862564,0 -0.710694,-0.079 -1.450268,-0.04 -2.128641,-0.26608 -0.82018,-0.27339 -2.590893,-1.52658 -3.192966,-2.12865 -0.581059,-0.58105 -0.05531,-0.43201 -0.266081,-1.06432 -0.07933,-0.23799 -0.41997,-0.30778 -0.532159,-0.53216 -0.426762,-0.85352 -0.504946,-2.76966 -0.26608,-3.72512 0.15857,-0.63428 1.603279,-1.7784 2.128641,-2.12865 0.683281,-0.45552 1.634376,-0.18946 1.862564,-1.3304 0.10429,-0.52145 0.268303,-3.05659 0,-3.45904 -0.110011,-0.16502 -0.391925,-0.12585 -0.532162,-0.26608 -0.147868,-0.14787 -0.377719,-5.14113 -0.266078,-5.58769 0.02151,-0.086 0.203364,0.0627 0.266078,0 0.281556,-0.28155 0.315264,-1.04061 0.798243,-1.3304 0.22816,-0.1369 0.537326,0.0522 0.79824,0 0.565766,-0.11315 1.109302,-0.67645 1.596482,-0.79824 0.176729,-0.0442 3.442978,-0.14107 3.725124,0 0.309949,0.15497 0.488292,0.37719 0.79824,0.53216 0.55531,0.27765 1.241708,0 1.862564,0 0.162568,0 1.932217,0.19642 2.128641,0 0.547228,-0.54723 0.894361,-1.39448 1.596483,-1.86256 1.484119,-0.98942 -0.375711,0.30993 1.064321,-0.26608 0.658987,0.14751 0.667673,-0.59992 1.064321,-0.79824 0.441698,-0.22085 1.738235,-0.64208 2.128644,-0.79824 0.567431,-0.22698 5.07378,0 5.853766,0 0.945534,0 2.859577,-0.31096 3.725124,0.26607 0.446839,0.2979 0.841778,0.82002 1.330398,1.06433 0.65535,0.32767 -0.2402,-0.77236 0.79825,0.26608 0.0704,0.0704 0,0.68867 0,0.79824 0,1.03943 0.15866,0.10742 -0.53217,0.79824 -0.16299,0.16299 -0.22651,0.69636 -0.53215,0.79824 -0.55878,0.18626 -1.303799,-0.18626 -1.862568,0 -1.048125,0.34938 0.04851,1.59648 -1.330401,1.59648 -0.480336,0 -1.548644,-0.2048 -1.862564,0.26608 -1.058548,1.58782 1.392336,2.62067 2.128644,3.72513 0.110012,0.16501 0.125844,0.39192 0.266081,0.53216 0.06271,0.0627 0.203364,-0.0627 0.266079,0 0.321709,0.3217 0.532161,1.87844 0.532161,2.39472 0,0.72797 -2.401638,1.07815 -2.926884,2.12864 -0.266081,0.53216 -0.610092,1.03204 -0.79824,1.59648 -0.112189,0.33657 0.13176,0.73493 0,1.06433 -0.147312,0.36828 -0.471847,0.67228 -0.532162,1.06432 -0.148349,0.96428 0,1.95125 0,2.92688 0,1.25359 0.137864,1.02801 0.798243,2.12864 0.697481,1.16247 -0.229344,-0.1926 0.532159,1.33041 0.05609,0.11219 0.226417,0.14708 0.266081,0.26607 0.265562,0.79669 0.537136,8.22859 0.266081,9.31282 -0.107194,0.42877 -0.953831,1.67427 -1.330402,1.86256 -0.696823,0.34841 -4.221221,0.54418 -5.055526,0.26608 -0.828704,-0.27623 -1.653971,-0.60135 -2.394722,-1.06432 -1.238116,-0.77382 -0.772626,-1.81133 -1.330402,-2.92688 -0.03967,-0.0793 -0.177387,0 -0.266081,0 -0.08869,-0.26608 -0.219972,-0.52159 -0.266081,-0.79825 -0.167555,-1.00533 0.411676,-3.83724 0,-4.52336 -0.56697,-0.94495 -1.627214,-1.78412 -2.660803,-2.12865 -0.399122,-0.13303 -0.266081,0.26609 -0.79824,0 -0.22438,-0.11218 -0.323432,-0.393 -0.532162,-0.53215 -0.406329,-0.27089 -3.642188,0.19627 -3.991205,0.26608 z"
         id="path1" />
      <ellipse
         style="fill:none;stroke:#000000;stroke-width:0.208;stroke-linecap:round;stroke-linejoin:round;stroke-dasharray:none;paint-order:fill markers stroke"
         id="path2"
         cx="82.518158"
         cy="243.02118"
         rx="0.59868073"
         ry="0.56542075" />
      <ellipse
         style="fill:none;stroke:#000000;stroke-width:0.208;stroke-linecap:round;stroke-linejoin:round;stroke-dasharray:none;paint-order:fill markers stroke"
         id="path2-2"
         cx="85.608154"
         cy="243.08504"
         rx="0.59868073"
         ry="0.56542075" />
      <ellipse
         style="fill:none;stroke:#000000;stroke-width:0.208;stroke-linecap:round;stroke-linejoin:round;stroke-dasharray:none;paint-order:fill markers stroke"
         id="path2-2-5"
         cx="84.002693"
         cy="244.48195"
         rx="0.59868073"
         ry="0.56542075" />
      <ellipse
         style="fill:none;stroke:#000000;stroke-width:0.208;stroke-linecap:round;stroke-linejoin:round;stroke-dasharray:none;paint-order:fill markers stroke"
         id="path2-2-5-9"
         cx="84.078186"
         cy="241.4463"
         rx="0.59868073"
         ry="0.56542075" />
      <ellipse
         style="fill:none;stroke:#000000;stroke-width:0.208;stroke-linecap:round;stroke-linejoin:round;stroke-dasharray:none;paint-order:fill markers stroke"
         id="path2-2-5-9-8"
         cx="84.046432"
         cy="243.0215"
         rx="0.59868073"
         ry="0.56542075" />
    </g>
  </g>
</svg>
