<?xml version="1.0" encoding="UTF-8" standalone="no"?>
<!-- Created with Inkscape (http://www.inkscape.org/) -->

<svg
   width="240mm"
   height="120mm"
   viewBox="0 0 240 120"
   version="1.1"
   id="svg8"
   inkscape:version="1.3 (0e150ed6c4, 2023-07-21)"
   sodipodi:docname="template.svg"
   xml:space="preserve"
   inkscape:export-filename="kegelschnitt.svg"
   inkscape:export-xdpi="96"
   inkscape:export-ydpi="96"
   xmlns:inkscape="http://www.inkscape.org/namespaces/inkscape"
   xmlns:sodipodi="http://sodipodi.sourceforge.net/DTD/sodipodi-0.dtd"
   xmlns="http://www.w3.org/2000/svg"
   xmlns:svg="http://www.w3.org/2000/svg"
   xmlns:rdf="http://www.w3.org/1999/02/22-rdf-syntax-ns#"
   xmlns:cc="http://creativecommons.org/ns#"
   xmlns:dc="http://purl.org/dc/elements/1.1/"><defs
     id="defs2" /><sodipodi:namedview
     id="base"
     pagecolor="#ffffff"
     bordercolor="#666666"
     borderopacity="1.0"
     inkscape:pageopacity="0.0"
     inkscape:pageshadow="2"
     inkscape:zoom="0.99437388"
     inkscape:cx="284.27627"
     inkscape:cy="182.72055"
     inkscape:document-units="mm"
     inkscape:current-layer="layer1"
     showgrid="false"
     showborder="true"
     width="200mm"
     showguides="true"
     inkscape:guide-bbox="true"
     inkscape:window-width="2520"
     inkscape:window-height="995"
     inkscape:window-x="20"
     inkscape:window-y="65"
     inkscape:window-maximized="1"
     inkscape:showpageshadow="2"
     inkscape:pagecheckerboard="0"
     inkscape:deskcolor="#d1d1d1"><inkscape:grid
       type="xygrid"
       id="grid815"
       units="mm"
       spacingx="10"
       spacingy="10"
       empspacing="4"
       dotted="false"
       originx="0"
       originy="0"
       visible="false" /></sodipodi:namedview><metadata
     id="metadata5"><rdf:RDF><cc:Work
         rdf:about=""><dc:format>image/svg+xml</dc:format><dc:type
           rdf:resource="http://purl.org/dc/dcmitype/StillImage" /><dc:title /></cc:Work></rdf:RDF></metadata><g
     inkscape:label="Layer 1"
     inkscape:groupmode="layer"
     id="layer1"
     transform="translate(0,-177)"><g
       inkscape:label="Ebene 1"
       id="layer1-6"
       transform="translate(73.657538,192.34722)"><path
         style="fill:none;stroke:#000000;stroke-width:0.108;stroke-linecap:round;stroke-linejoin:round;stroke-opacity:1;paint-order:fill markers stroke"
         d="m 20.357915,74.427362 19.297341,-47.461031 14.951093,48.15643 c 0,0 -11.126393,5.563197 -17.384993,5.737046 -6.258597,0.17385 -16.863441,-6.432445 -16.863441,-6.432445 z"
         id="path1"
         sodipodi:nodetypes="cccsc" /><path
         style="fill:none;stroke:#000000;stroke-width:0.108;stroke-linecap:round;stroke-linejoin:round;stroke-opacity:1;paint-order:fill markers stroke"
         d="m 20.792539,74.688137 c 0,0 8.344796,-4.780873 16.515743,-5.128573 8.170947,-0.347699 17.124218,5.389347 17.124218,5.389347"
         id="path2"
         sodipodi:nodetypes="csc" /><path
         style="fill:none;stroke:#000000;stroke-width:0.108;stroke-linecap:round;stroke-linejoin:round;stroke-opacity:1;paint-order:fill markers stroke"
         d="m 27.167632,36.510348 37.370861,-0.614654 -7.86755,14.874587 -38.846026,0.368792 z"
         id="path3" /><path
         style="fill:none;stroke:#000000;stroke-width:0.108;stroke-linecap:round;stroke-linejoin:round;stroke-dasharray:0.108, 1.296;stroke-dashoffset:0;stroke-opacity:1;paint-order:fill markers stroke"
         d="m 32.699503,43.394452 c 0.248095,0.328067 0.647668,0.891704 1.106374,0.983445 0.241088,0.04822 0.495067,-0.04042 0.737584,0 0.198721,0.03312 0.894599,0.346581 0.983443,0.36879 0.340701,0.08518 0.756997,-0.04367 1.106374,0 0.287512,0.03594 0.573675,0.08195 0.860515,0.122931 0.415189,0.05931 1.35229,0.153677 1.721024,0.245861 0.52799,0.131998 0.89585,0.390689 1.475166,0.245861 0.251423,-0.06285 0.486161,-0.183004 0.737584,-0.245861 0.328933,-0.08223 2.663444,-0.696558 2.827399,-0.860512 0.310115,-0.310116 -0.88223,-1.005163 -0.983443,-1.106374 -0.02897,-0.02898 0.01834,-0.08628 0,-0.122931 -0.197239,-0.394478 -0.875348,-0.683535 -1.229305,-0.860515 -0.356116,-0.178056 -1.725274,-0.410474 -2.212747,-0.49172 -0.121259,-0.02021 -0.249531,0.02981 -0.368792,0 -0.540372,-0.135094 -3.737563,-0.264181 -4.302567,-0.122931 -0.443394,0.110848 -1.505442,0.767861 -1.843955,1.106374 -0.02898,0.02898 0.02897,0.09396 0,0.122931 -0.09163,0.09163 -0.291045,0.01926 -0.368792,0.12293 -0.109953,0.146603 -0.163907,0.327814 -0.245862,0.491721 z"
         id="path4" /><path
         style="fill:none;stroke:#000000;stroke-width:0.108;stroke-linecap:round;stroke-linejoin:round;stroke-dasharray:0.108, 1.296;stroke-dashoffset:0;stroke-opacity:1;paint-order:fill markers stroke"
         d="m 27.782285,56.056291 c 0.509329,-0.853123 1.254477,-1.549707 1.843956,-2.335678 0.05498,-0.0733 0.05814,-0.181073 0.12293,-0.245862 0.104471,-0.104471 0.264322,-0.141391 0.368793,-0.245861 0.29538,-0.295381 0.330477,-0.73918 0.737581,-0.983443 0.07028,-0.04217 0.16977,0.03044 0.245862,0 0.137178,-0.05487 0.236646,-0.17979 0.368792,-0.245862 0.504251,-0.252126 1.08644,-0.481753 1.598096,-0.737581 0.259723,0.03202 0.04669,-0.195038 0.122931,-0.245862 1.334333,-0.889555 -0.322281,0.345536 0.614651,-0.12293 0.103664,-0.05183 0.146478,-0.186233 0.245861,-0.245862 0.222229,-0.133337 0.499377,-0.143772 0.737584,-0.245861 0.954882,-0.409237 1.80036,-0.68934 2.827399,-0.860513 1.354759,-0.225792 -0.139187,0.0065 0.491723,-0.245861 0.274097,-0.109641 0.803873,-0.308292 1.106373,-0.368792 0.39065,-0.07813 0.846421,-0.02721 1.229305,-0.122931 0.231714,-0.05793 0.310917,-0.245859 0.614653,-0.245859 0.368792,0 0.739839,0.04073 1.106374,0 0.516281,-0.05737 2.188522,-0.294915 2.70447,-0.12293 0.16728,0.05576 1.468102,0.730517 1.475166,0.737581 0.407027,0.407027 -0.0062,1.524387 -0.245861,1.843958 -0.0076,0.346139 -0.277165,0.0313 -0.368792,0.122931 -0.203412,0.203412 -0.267708,0.422331 -0.614651,0.49172 -0.120544,0.0241 -0.252169,-0.03887 -0.368792,0 -0.457132,0.152376 -0.886085,0.562777 -1.352236,0.737584 -0.336772,0.126289 -0.791874,0.21154 -1.106373,0.36879 -0.201025,0.100512 -0.653238,0.439904 -0.860513,0.491723 -0.119261,0.02982 -0.24825,-0.0241 -0.368792,0 -0.275084,0.05502 -1.196861,0.475498 -1.475166,0.614653 -0.342302,0.171149 -0.752279,0.314674 -1.106373,0.49172 -0.05183,0.02593 -0.08196,0.08196 -0.122931,0.122931 -0.163907,0.08196 -0.317873,0.187912 -0.491723,0.245862 -0.828807,0.27627 0.68712,-0.589421 -0.737581,0.12293 -0.103664,0.05183 -0.142198,0.19403 -0.245862,0.245862 -0.231799,0.115898 -0.483454,0.195035 -0.737581,0.245858 -0.120545,0.0241 -0.245862,0 -0.368793,0 -0.204885,0.08196 -0.39924,0.197993 -0.614653,0.245862 -0.160004,0.03556 -0.329462,-0.02318 -0.49172,0 -0.165055,0.02357 -0.86092,0.20502 -0.983446,0.245861 -0.17385,0.05795 -0.312026,0.209923 -0.49172,0.245862 -0.281268,0.05625 -0.575892,-0.03558 -0.860515,0 -0.307028,0.03838 -0.687583,0.171897 -0.983443,0.245861 -0.08889,0.02222 -0.156969,0.100706 -0.245861,0.122931 -0.425879,0.106468 -0.921113,-0.08622 -1.352236,0 -0.456692,0.09134 -0.755142,0.245859 -1.229304,0.245859 -0.09984,0 -0.732187,0.02698 -0.737582,0 -0.04018,-0.200904 0,-0.409769 0,-0.614651 z"
         id="path5" /><path
         style="fill:none;stroke:#000000;stroke-width:0.108;stroke-linecap:round;stroke-linejoin:round;stroke-opacity:1;paint-order:fill markers stroke"
         d="M 17.824917,66.75124 58.02318,52.98303 60.358858,36.756208 23.110927,48.06581 Z"
         id="path6" /><path
         style="fill:none;stroke:#000000;stroke-width:0.108;stroke-linecap:round;stroke-linejoin:round;stroke-dasharray:0.108, 1.296;stroke-dashoffset:0;stroke-opacity:1;paint-order:fill markers stroke"
         d="m 27.782285,71.176738 c 0.163907,-0.28684 0.364657,-0.555561 0.491721,-0.860514 0.16587,-0.398082 0.112641,-1.102146 0.245861,-1.475166 0.111114,-0.311119 0.327816,-0.573675 0.491723,-0.860513 0.08195,-0.368792 0.126394,-0.747974 0.245861,-1.106373 0.226301,-0.678905 0.588037,-1.305161 0.860513,-1.966889 0.231939,-0.563279 0.374689,-1.161116 0.614653,-1.721025 0.288748,-0.673748 0.732941,-1.278006 0.983443,-1.966888 0.0714,-0.196363 0.05686,-0.416433 0.122931,-0.614654 0.139562,-0.418684 0.344837,-0.81313 0.49172,-1.229304 0.09929,-0.281308 0.128349,-0.586317 0.245861,-0.860513 0.274548,-0.640611 0.794729,-1.220665 1.106374,-1.843957 0.264163,-0.52832 0.360458,-0.990288 0.737584,-1.475164 0.231939,-0.298209 0.528024,-0.546176 0.737582,-0.860515 0.350822,-0.526229 0.535824,-1.35692 0.860515,-1.843955 0.09643,-0.144653 0.257495,-0.235238 0.368789,-0.368792 0.199351,-0.23922 0.32448,-0.48672 0.491723,-0.737584 0.12858,-0.192868 0.346917,-0.310716 0.491723,-0.49172 0.358526,-0.44816 0.75688,-0.886243 1.106374,-1.352236 0.249248,-0.332332 0.579411,-0.632068 0.860512,-0.983443 0.05724,-0.07155 0.05814,-0.181072 0.122931,-0.245861 0.06479,-0.06479 0.190883,-0.04963 0.245861,-0.122931 0.07775,-0.103663 0.04518,-0.265128 0.122931,-0.368792 0.174998,-0.233333 0.838314,-0.435946 1.106374,-0.614651 0.09643,-0.06429 0.135908,-0.209211 0.245861,-0.245861 0.07775,-0.0259 0.163907,0 0.245861,0 0.08195,-0.08196 0.13825,-0.202816 0.245859,-0.245862 0.88111,-0.352443 -0.15127,0.410382 0.737584,-0.12293 0.09938,-0.05963 0.149427,-0.181571 0.245862,-0.245862 0.06819,-0.04546 0.172558,0.03665 0.245859,0 0.562604,-0.281302 -0.521645,0.05095 0.368792,-0.245861 0.351186,-0.117062 1.581811,-0.251288 1.966888,-0.122931 0.383704,0.127902 -0.04098,0.08196 0.122931,0.245862 0.09163,0.09163 0.277164,0.0313 0.36879,0.12293 0.06873,0.06873 0.03017,0.475509 0.12293,0.614654 0.262403,0.393605 0.124196,0.863042 0.245862,1.106374 0.05183,0.103663 0.202816,0.13825 0.245861,0.245861 0.142714,0.356783 -0.121854,0.863748 0,1.229304 0.01834,0.05498 0.104606,0.06795 0.122931,0.122931 0.110635,0.331912 -0.110638,0.774462 0,1.106374 0.04672,0.140163 0.179787,0.236646 0.245861,0.368792 0.0733,0.146603 -0.03975,0.332708 0,0.49172 0.05352,0.21408 0.197991,0.399241 0.245859,0.614654 0.191225,0.860512 -0.143417,0.143417 0,0.860512 0.01797,0.08985 0.100708,0.156969 0.122931,0.245861 0.0915,0.366006 0,0.855724 0,1.229305 0,1.024421 0,2.048841 0,3.073262 0,0.55471 0.133477,2.795765 0,3.196191 -0.07556,0.226673 -0.271751,0.396311 -0.36879,0.614653 -0.217659,0.489728 -0.201909,1.097447 -0.368792,1.598097 0.175916,0.110236 -0.44259,0.860613 -0.491723,0.983443 -0.0928,0.232 -0.01561,0.645893 -0.12293,0.860512 -0.24174,0.483481 -0.265796,0.222602 -0.36879,0.737584 -0.06015,0.300718 0.09708,0.692216 0,0.983443 -0.01834,0.05497 -0.09701,0.0711 -0.122931,0.122931 -0.13681,0.273621 0,1.656577 0,2.089817 0,0.327639 0.138412,0.952481 0,1.229304 -0.08872,0.177435 -0.245861,0.409213 -0.245861,0.614654"
         id="path7" /><path
         style="fill:none;stroke:#000000;stroke-width:0.108;stroke-linecap:round;stroke-linejoin:round;stroke-opacity:1;paint-order:fill markers stroke"
         d="M 44.132038,82.732201 54.335265,41.919288 48.311671,23.356787 43.394453,38.723095"
         id="path8" /><text
         xml:space="preserve"
         style="font-size:3.88056px;line-height:1.25;font-family:sans-serif;stroke-width:0.264583"
         x="65.276085"
         y="35.649834"
         id="text8"><tspan
           sodipodi:role="line"
           id="tspan8"
           style="stroke-width:0.264583"
           x="65.276085"
           y="35.649834">Kreis</tspan></text><text
         xml:space="preserve"
         style="font-size:3.88056px;line-height:1.25;font-family:sans-serif;stroke-width:0.264583"
         x="59.375412"
         y="52.245445"
         id="text9"><tspan
           sodipodi:role="line"
           id="tspan9"
           style="stroke-width:0.264583"
           x="59.375412"
           y="52.245445">Ellipse</tspan></text><text
         xml:space="preserve"
         style="font-size:3.88056px;line-height:1.25;font-family:sans-serif;stroke-width:0.264583"
         x="49.540974"
         y="21.144039"
         id="text10"><tspan
           sodipodi:role="line"
           id="tspan10"
           style="stroke-width:0.264583"
           x="49.540974"
           y="21.144039">Parabel</tspan></text><path
         style="fill:none;stroke:#000000;stroke-width:0.108;stroke-linecap:round;stroke-linejoin:round;stroke-opacity:1;paint-order:fill markers stroke"
         d="m 33.396659,10.537513 6.171673,16.515743 6.693223,-15.385718"
         id="path10" /><text
         xml:space="preserve"
         style="font-size:3.88056px;line-height:1.25;font-family:sans-serif;stroke-width:0.264583"
         x="31.168993"
         y="9.5216827"
         id="text11"><tspan
           sodipodi:role="line"
           id="tspan11"
           style="stroke-width:0.264583"
           x="31.168993"
           y="9.5216827">Hyperbel</tspan></text></g></g></svg>
