<?xml version="1.0" encoding="UTF-8" standalone="no"?>
<!-- Created with Inkscape (http://www.inkscape.org/) -->

<svg
   width="240mm"
   height="120mm"
   viewBox="0 0 240 120"
   version="1.1"
   id="svg8"
   inkscape:version="1.3 (0e150ed6c4, 2023-07-21)"
   sodipodi:docname="produktmenge.svg"
   inkscape:export-filename="produktmenge.pdf"
   inkscape:export-xdpi="96"
   inkscape:export-ydpi="96"
   xmlns:inkscape="http://www.inkscape.org/namespaces/inkscape"
   xmlns:sodipodi="http://sodipodi.sourceforge.net/DTD/sodipodi-0.dtd"
   xmlns="http://www.w3.org/2000/svg"
   xmlns:svg="http://www.w3.org/2000/svg"
   xmlns:rdf="http://www.w3.org/1999/02/22-rdf-syntax-ns#"
   xmlns:cc="http://creativecommons.org/ns#"
   xmlns:dc="http://purl.org/dc/elements/1.1/">
  <defs
     id="defs2">
    <marker
       style="overflow:visible"
       id="Triangle"
       refX="0"
       refY="0"
       orient="auto-start-reverse"
       inkscape:stockid="Triangle arrow"
       markerWidth="1"
       markerHeight="1"
       viewBox="0 0 1 1"
       inkscape:isstock="true"
       inkscape:collect="always"
       preserveAspectRatio="xMidYMid">
      <path
         transform="scale(0.5)"
         style="fill:context-stroke;fill-rule:evenodd;stroke:context-stroke;stroke-width:1pt"
         d="M 5.77,0 -2.88,5 V -5 Z"
         id="path135" />
    </marker>
  </defs>
  <sodipodi:namedview
     id="base"
     pagecolor="#ffffff"
     bordercolor="#666666"
     borderopacity="1.0"
     inkscape:pageopacity="0.0"
     inkscape:pageshadow="2"
     inkscape:zoom="0.70312851"
     inkscape:cx="393.95359"
     inkscape:cy="324.26505"
     inkscape:document-units="mm"
     inkscape:current-layer="layer1"
     showgrid="false"
     showborder="true"
     width="200mm"
     showguides="true"
     inkscape:guide-bbox="true"
     inkscape:window-width="1368"
     inkscape:window-height="842"
     inkscape:window-x="-6"
     inkscape:window-y="-6"
     inkscape:window-maximized="1"
     inkscape:showpageshadow="2"
     inkscape:pagecheckerboard="0"
     inkscape:deskcolor="#d1d1d1">
    <inkscape:grid
       type="xygrid"
       id="grid815"
       units="mm"
       spacingx="10"
       spacingy="10"
       empspacing="4"
       dotted="false"
       originx="0"
       originy="0"
       visible="false" />
  </sodipodi:namedview>
  <metadata
     id="metadata5">
    <rdf:RDF>
      <cc:Work
         rdf:about="">
        <dc:format>image/svg+xml</dc:format>
        <dc:type
           rdf:resource="http://purl.org/dc/dcmitype/StillImage" />
        <dc:title />
      </cc:Work>
    </rdf:RDF>
  </metadata>
  <g
     inkscape:label="Layer 1"
     inkscape:groupmode="layer"
     id="layer1"
     transform="translate(0,-177)">
    <g
       id="g15"
       transform="matrix(1.5936098,0,0,1.5936098,-72.392993,-135.17494)">
      <path
         style="fill:none;stroke:#000000;stroke-width:0.0790001;stroke-linecap:round;stroke-linejoin:round;stroke-opacity:1;marker-start:url(#Triangle);paint-order:fill markers stroke"
         d="m 90.999473,195.8917 v 75.30074"
         id="path1" />
      <path
         style="fill:none;stroke:#000000;stroke-width:0.0790001;stroke-linecap:round;stroke-linejoin:round;stroke-opacity:1;marker-end:url(#Triangle);paint-order:fill markers stroke"
         d="M 80.090178,258.42058 H 166.83237"
         id="path2" />
      <path
         style="fill:none;stroke:#000000;stroke-width:0.0790001;stroke-linecap:round;stroke-linejoin:round;stroke-dasharray:0.0790001, 0.474001;stroke-dashoffset:0;stroke-opacity:1;paint-order:fill markers stroke"
         d="m 106.30317,265.24104 v -67.3567"
         id="path3" />
      <path
         style="fill:none;stroke:#000000;stroke-width:0.0790001;stroke-linecap:round;stroke-linejoin:round;stroke-dasharray:0.0790001, 0.474001;stroke-dashoffset:0;stroke-opacity:1;paint-order:fill markers stroke"
         d="m 120,265.24104 -0.33838,-67.3567"
         id="path4" />
      <path
         style="fill:none;stroke:#000000;stroke-width:0.0790001;stroke-linecap:round;stroke-linejoin:round;stroke-dasharray:0.0790001, 0.474001;stroke-dashoffset:0;stroke-opacity:1;paint-order:fill markers stroke"
         d="M 80.090176,211.43094 H 155.0333"
         id="path5" />
      <path
         style="fill:none;stroke:#000000;stroke-width:0.0790001;stroke-linecap:round;stroke-linejoin:round;stroke-dasharray:0.0790001, 0.474001;stroke-dashoffset:0;stroke-opacity:1;paint-order:fill markers stroke"
         d="m 80.090176,235.70193 74.943124,0.18815"
         id="path6" />
      <g
         id="g9">
        <text
           xml:space="preserve"
           style="font-size:3.88056px;line-height:1.25;font-family:sans-serif;stroke-width:0.264583"
           x="75.07074"
           y="210.4902"
           id="text6"><tspan
             sodipodi:role="line"
             id="tspan6"
             style="stroke-width:0.264583"
             x="75.07074"
             y="210.4902">5</tspan></text>
        <text
           xml:space="preserve"
           style="font-size:3.88056px;line-height:1.25;font-family:sans-serif;stroke-width:0.264583"
           x="74.318146"
           y="235.70193"
           id="text7"><tspan
             sodipodi:role="line"
             id="tspan7"
             style="stroke-width:0.264583"
             x="74.318146"
             y="235.70193">2</tspan></text>
        <text
           xml:space="preserve"
           style="font-size:3.88056px;line-height:1.25;font-family:sans-serif;stroke-width:0.264583"
           x="74.623207"
           y="223.09607"
           id="text8"><tspan
             sodipodi:role="line"
             id="tspan8"
             style="stroke-width:0.264583"
             x="74.623207"
             y="223.09607">y</tspan></text>
      </g>
      <text
         xml:space="preserve"
         style="font-size:3.88056px;line-height:1.25;font-family:sans-serif;stroke-width:0.264583"
         x="107.60419"
         y="269.19211"
         id="text9"><tspan
           sodipodi:role="line"
           id="tspan9"
           style="stroke-width:0.264583"
           x="107.60419"
           y="269.19211">1  x  3</tspan></text>
      <path
         style="fill:none;stroke:#000000;stroke-width:0.0790001;stroke-linecap:round;stroke-linejoin:round;stroke-dasharray:0.0790001, 0.474001;stroke-dashoffset:0;stroke-opacity:1;paint-order:fill markers stroke"
         d="m 106.30317,228.83455 c 0.0694,0.38961 0.51636,0.58535 0.65852,0.94074 0.0233,0.0582 -0.0323,0.13437 0,0.18815 0.25373,0.42289 0.71482,0.63482 1.03481,1.03481 0.23176,0.28971 0.35359,0.64555 0.56444,0.94073 0.13792,0.1931 0.48527,0.42102 0.56444,0.65852 0.0198,0.0595 -0.0281,0.13205 0,0.18815 0.20737,0.41474 0.43648,0.59074 0.65851,1.03481 0.0281,0.0561 -0.028,0.13205 0,0.18814 0.10491,0.20981 0.49029,0.34197 0.56445,0.56444 0.11105,0.33318 -0.0786,0.30279 0.18814,0.65852 0.003,0.004 0.47037,0.46078 0.47037,0.56444"
         id="path9" />
      <path
         style="fill:none;stroke:#000000;stroke-width:0.0790001;stroke-linecap:round;stroke-linejoin:round;stroke-dasharray:0.0790001, 0.474001;stroke-dashoffset:0;stroke-opacity:1;paint-order:fill markers stroke"
         d="m 106.30317,221.87311 c 4.8262,9.28115 1.84636,4.44521 6.58515,11.00661 0.26479,0.36663 0.48515,0.76419 0.75259,1.12888 0.23946,0.32654 0.73695,0.71602 1.12889,0.84666 0.0595,0.0199 0.1438,-0.0443 0.18814,0 0.08,0.08 0.12031,0.19178 0.18815,0.28223 0.0532,0.0709 0.17357,0.10066 0.18815,0.18814 0.0258,0.15466 0,0.31358 0,0.47037"
         id="path10" />
      <path
         style="fill:none;stroke:#000000;stroke-width:0.0790001;stroke-linecap:round;stroke-linejoin:round;stroke-dasharray:0.0790001, 0.474001;stroke-dashoffset:0;stroke-opacity:1;paint-order:fill markers stroke"
         d="m 106.30317,218.01609 c 5.38987,6.96739 3.38408,4.1237 9.21921,13.07623 0.62257,0.95517 1.15496,1.96762 1.7874,2.91628 0.21799,0.32699 0.77734,0.70801 0.94074,1.03481 0.0421,0.0841 -0.0297,0.19298 0,0.28222 0.014,0.0421 0.13069,0.0691 0.0941,0.0941 -0.2391,0.16328 -0.5219,0.25086 -0.78285,0.37629"
         id="path11" />
      <path
         style="fill:none;stroke:#000000;stroke-width:0.0790001;stroke-linecap:round;stroke-linejoin:round;stroke-dasharray:0.0790001, 0.474001;stroke-dashoffset:0;stroke-opacity:1;paint-order:fill markers stroke"
         d="m 106.30317,212.93612 c 3.60922,5.53803 7.29822,11.02252 10.91254,16.55695 0.64098,0.9815 1.2056,1.97006 1.88147,2.91628 0.13143,0.18401 0.2164,0.40455 0.3763,0.56444 0.16854,0.16855 0.47066,0.30847 0.47036,0.28222 -0.006,-0.56566 -0.0754,-1.12888 -0.11303,-1.69332"
         id="path12" />
      <path
         style="fill:none;stroke:#000000;stroke-width:0.0790001;stroke-linecap:round;stroke-linejoin:round;stroke-dasharray:0.0790001, 0.474001;stroke-dashoffset:0;stroke-opacity:1;paint-order:fill markers stroke"
         d="m 109.59575,211.43094 c 5.59134,8.25389 4.213,6.60623 8.46662,12.04142 0.27468,0.35097 0.59298,0.66838 0.84666,1.03481 0.0357,0.0516 -0.0198,0.12865 0,0.18815 0.0493,0.14789 0.36151,0.3615 0.47037,0.47036 0.12335,0.12335 0.23266,0.21041 0.3763,0.28223 0.0561,0.028 0.25086,0 0.18814,0 -0.0377,0 -0.0754,0 -0.11303,0"
         id="path13" />
      <path
         style="fill:none;stroke:#000000;stroke-width:0.0790001;stroke-linecap:round;stroke-linejoin:round;stroke-dasharray:0.0790001, 0.474001;stroke-dashoffset:0;stroke-opacity:1;paint-order:fill markers stroke"
         d="m 115.24016,211.43094 c 1.52824,1.73408 2.03231,4.10192 3.66887,5.73849 0.30922,0.30922 -0.24424,-0.27229 0.18815,0.37629 0.0174,0.0261 0.0719,-0.0222 0.0941,0 0.41821,0.41822 -0.0509,0.30968 0.75258,0.47037"
         id="path14" />
      <rect
         style="font-variation-settings:normal;opacity:1;fill:none;fill-opacity:1;fill-rule:evenodd;stroke:#000000;stroke-width:0.2;stroke-linecap:round;stroke-linejoin:round;stroke-miterlimit:4;stroke-dasharray:none;stroke-dashoffset:0;stroke-opacity:1;paint-order:fill markers stroke;stop-color:#000000;stop-opacity:1"
         id="rect14"
         width="13.696831"
         height="24.36508"
         x="106.30317"
         y="211.43094" />
      <text
         xml:space="preserve"
         style="font-size:3.88056px;line-height:1.25;font-family:sans-serif;stroke-width:0.264583"
         x="124.02222"
         y="224.68816"
         id="text14"><tspan
           sodipodi:role="line"
           id="tspan14"
           style="stroke-width:0.264583"
           x="124.02222"
           y="224.68816">$[1,3]\times[2,5]$</tspan></text>
    </g>
  </g>
</svg>
