<?xml version="1.0" encoding="UTF-8" standalone="no"?>
<svg
   version="1.1"
   width="1148"
   height="773"
   id="svg55"
   sodipodi:docname="KreisGerade.svg"
   inkscape:version="1.4.2 (f4327f4, 2025-05-13)"
   xmlns:inkscape="http://www.inkscape.org/namespaces/inkscape"
   xmlns:sodipodi="http://sodipodi.sourceforge.net/DTD/sodipodi-0.dtd"
   xmlns="http://www.w3.org/2000/svg"
   xmlns:svg="http://www.w3.org/2000/svg">
  <sodipodi:namedview
     id="namedview55"
     pagecolor="#ffffff"
     bordercolor="#000000"
     borderopacity="0.25"
     inkscape:showpageshadow="2"
     inkscape:pageopacity="0.0"
     inkscape:pagecheckerboard="0"
     inkscape:deskcolor="#d1d1d1"
     inkscape:zoom="1.1009056"
     inkscape:cx="532.74324"
     inkscape:cy="429.19213"
     inkscape:window-width="1920"
     inkscape:window-height="1111"
     inkscape:window-x="-9"
     inkscape:window-y="-9"
     inkscape:window-maximized="1"
     inkscape:current-layer="svg55" />
  <defs
     id="defs1">
    <clipPath
       id="awTvshMuwnEl">
      <path
         fill="none"
         stroke="none"
         d=" M 0 0 L 1148 0 L 1148 773 L 0 773 L 0 0 Z"
         id="path1" />
    </clipPath>
  </defs>
  <g
     transform="scale(1,1)"
     clip-path="url(#awTvshMuwnEl)"
     id="g55">
    <g
       id="g54">
      <rect
         fill="rgb(255,255,255)"
         stroke="none"
         x="0"
         y="0"
         width="1148"
         height="774"
         fill-opacity="1"
         id="rect1" />
      <path
         fill="none"
         stroke="rgb(180,179,186)"
         paint-order="fill stroke markers"
         d=" M 29.5 0.5 L 29.5 773.5 M 29.5 0.5 L 29.5 773.5 M 81.5 0.5 L 81.5 773.5 M 133.5 0.5 L 133.5 773.5 M 184.5 0.5 L 184.5 773.5 M 236.5 0.5 L 236.5 773.5 M 288.5 0.5 L 288.5 773.5 M 340.5 0.5 L 340.5 773.5 M 391.5 0.5 L 391.5 773.5 M 443.5 0.5 L 443.5 773.5 M 495.5 0.5 L 495.5 773.5 M 546.5 0.5 L 546.5 773.5 M 598.5 0.5 L 598.5 773.5 M 650.5 0.5 L 650.5 773.5 M 701.5 0.5 L 701.5 773.5 M 753.5 0.5 L 753.5 773.5 M 805.5 0.5 L 805.5 773.5 M 908.5 0.5 L 908.5 773.5 M 960.5 0.5 L 960.5 773.5 M 1011.5 0.5 L 1011.5 773.5 M 1063.5 0.5 L 1063.5 773.5 M 1115.5 0.5 L 1115.5 773.5"
         stroke-opacity="1"
         stroke-linecap="round"
         stroke-linejoin="round"
         stroke-miterlimit="10"
         id="path2" />
      <path
         fill="none"
         stroke="rgb(180,179,186)"
         paint-order="fill stroke markers"
         d=" M 9.5 0.5 L 9.5 773.5 M 19.5 0.5 L 19.5 773.5 M 40.5 0.5 L 40.5 773.5 M 50.5 0.5 L 50.5 773.5 M 60.5 0.5 L 60.5 773.5 M 71.5 0.5 L 71.5 773.5 M 91.5 0.5 L 91.5 773.5 M 102.5 0.5 L 102.5 773.5 M 112.5 0.5 L 112.5 773.5 M 122.5 0.5 L 122.5 773.5 M 143.5 0.5 L 143.5 773.5 M 153.5 0.5 L 153.5 773.5 M 164.5 0.5 L 164.5 773.5 M 174.5 0.5 L 174.5 773.5 M 195.5 0.5 L 195.5 773.5 M 205.5 0.5 L 205.5 773.5 M 216.5 0.5 L 216.5 773.5 M 226.5 0.5 L 226.5 773.5 M 247.5 0.5 L 247.5 773.5 M 257.5 0.5 L 257.5 773.5 M 267.5 0.5 L 267.5 773.5 M 278.5 0.5 L 278.5 773.5 M 298.5 0.5 L 298.5 773.5 M 309.5 0.5 L 309.5 773.5 M 319.5 0.5 L 319.5 773.5 M 329.5 0.5 L 329.5 773.5 M 350.5 0.5 L 350.5 773.5 M 360.5 0.5 L 360.5 773.5 M 371.5 0.5 L 371.5 773.5 M 381.5 0.5 L 381.5 773.5 M 402.5 0.5 L 402.5 773.5 M 412.5 0.5 L 412.5 773.5 M 422.5 0.5 L 422.5 773.5 M 433.5 0.5 L 433.5 773.5 M 453.5 0.5 L 453.5 773.5 M 464.5 0.5 L 464.5 773.5 M 474.5 0.5 L 474.5 773.5 M 484.5 0.5 L 484.5 773.5 M 505.5 0.5 L 505.5 773.5 M 515.5 0.5 L 515.5 773.5 M 526.5 0.5 L 526.5 773.5 M 536.5 0.5 L 536.5 773.5 M 557.5 0.5 L 557.5 773.5 M 567.5 0.5 L 567.5 773.5 M 577.5 0.5 L 577.5 773.5 M 588.5 0.5 L 588.5 773.5 M 608.5 0.5 L 608.5 773.5 M 619.5 0.5 L 619.5 773.5 M 629.5 0.5 L 629.5 773.5 M 639.5 0.5 L 639.5 773.5 M 660.5 0.5 L 660.5 773.5 M 670.5 0.5 L 670.5 773.5 M 681.5 0.5 L 681.5 773.5 M 691.5 0.5 L 691.5 773.5 M 712.5 0.5 L 712.5 773.5 M 722.5 0.5 L 722.5 773.5 M 732.5 0.5 L 732.5 773.5 M 743.5 0.5 L 743.5 773.5 M 763.5 0.5 L 763.5 773.5 M 774.5 0.5 L 774.5 773.5 M 784.5 0.5 L 784.5 773.5 M 794.5 0.5 L 794.5 773.5 M 815.5 0.5 L 815.5 773.5 M 825.5 0.5 L 825.5 773.5 M 836.5 0.5 L 836.5 773.5 M 846.5 0.5 L 846.5 773.5 M 867.5 0.5 L 867.5 773.5 M 877.5 0.5 L 877.5 773.5 M 887.5 0.5 L 887.5 773.5 M 898.5 0.5 L 898.5 773.5 M 918.5 0.5 L 918.5 773.5 M 929.5 0.5 L 929.5 773.5 M 939.5 0.5 L 939.5 773.5 M 949.5 0.5 L 949.5 773.5 M 970.5 0.5 L 970.5 773.5 M 980.5 0.5 L 980.5 773.5 M 991.5 0.5 L 991.5 773.5 M 1001.5 0.5 L 1001.5 773.5 M 1022.5 0.5 L 1022.5 773.5 M 1032.5 0.5 L 1032.5 773.5 M 1042.5 0.5 L 1042.5 773.5 M 1053.5 0.5 L 1053.5 773.5 M 1073.5 0.5 L 1073.5 773.5 M 1084.5 0.5 L 1084.5 773.5 M 1094.5 0.5 L 1094.5 773.5 M 1104.5 0.5 L 1104.5 773.5 M 1125.5 0.5 L 1125.5 773.5 M 1135.5 0.5 L 1135.5 773.5 M 1146.5 0.5 L 1146.5 773.5"
         stroke-opacity="0.23529411764705882"
         stroke-linecap="round"
         stroke-linejoin="round"
         stroke-miterlimit="10"
         id="path3" />
      <path
         fill="none"
         stroke="rgb(180,179,186)"
         paint-order="fill stroke markers"
         d=" M 0.5 30.5 L 1148.5 30.5 M 0.5 30.5 L 1148.5 30.5 M 0.5 82.5 L 1148.5 82.5 M 0.5 134.5 L 1148.5 134.5 M 0.5 185.5 L 1148.5 185.5 M 0.5 237.5 L 1148.5 237.5 M 0.5 289.5 L 1148.5 289.5 M 0.5 340.5 L 1148.5 340.5 M 0.5 392.5 L 1148.5 392.5 M 0.5 444.5 L 1148.5 444.5 M 0.5 547.5 L 1148.5 547.5 M 0.5 599.5 L 1148.5 599.5 M 0.5 650.5 L 1148.5 650.5 M 0.5 702.5 L 1148.5 702.5 M 0.5 754.5 L 1148.5 754.5"
         stroke-opacity="1"
         stroke-linecap="round"
         stroke-linejoin="round"
         stroke-miterlimit="10"
         id="path4" />
      <path
         fill="none"
         stroke="rgb(180,179,186)"
         paint-order="fill stroke markers"
         d=" M 0.5 10.5 L 1148.5 10.5 M 0.5 10.5 L 1148.5 10.5 M 0.5 20.5 L 1148.5 20.5 M 0.5 41.5 L 1148.5 41.5 M 0.5 51.5 L 1148.5 51.5 M 0.5 61.5 L 1148.5 61.5 M 0.5 72.5 L 1148.5 72.5 M 0.5 92.5 L 1148.5 92.5 M 0.5 103.5 L 1148.5 103.5 M 0.5 113.5 L 1148.5 113.5 M 0.5 123.5 L 1148.5 123.5 M 0.5 144.5 L 1148.5 144.5 M 0.5 154.5 L 1148.5 154.5 M 0.5 165.5 L 1148.5 165.5 M 0.5 175.5 L 1148.5 175.5 M 0.5 196.5 L 1148.5 196.5 M 0.5 206.5 L 1148.5 206.5 M 0.5 216.5 L 1148.5 216.5 M 0.5 227.5 L 1148.5 227.5 M 0.5 247.5 L 1148.5 247.5 M 0.5 258.5 L 1148.5 258.5 M 0.5 268.5 L 1148.5 268.5 M 0.5 278.5 L 1148.5 278.5 M 0.5 299.5 L 1148.5 299.5 M 0.5 309.5 L 1148.5 309.5 M 0.5 320.5 L 1148.5 320.5 M 0.5 330.5 L 1148.5 330.5 M 0.5 351.5 L 1148.5 351.5 M 0.5 361.5 L 1148.5 361.5 M 0.5 371.5 L 1148.5 371.5 M 0.5 382.5 L 1148.5 382.5 M 0.5 402.5 L 1148.5 402.5 M 0.5 413.5 L 1148.5 413.5 M 0.5 423.5 L 1148.5 423.5 M 0.5 433.5 L 1148.5 433.5 M 0.5 454.5 L 1148.5 454.5 M 0.5 464.5 L 1148.5 464.5 M 0.5 475.5 L 1148.5 475.5 M 0.5 485.5 L 1148.5 485.5 M 0.5 506.5 L 1148.5 506.5 M 0.5 516.5 L 1148.5 516.5 M 0.5 526.5 L 1148.5 526.5 M 0.5 537.5 L 1148.5 537.5 M 0.5 557.5 L 1148.5 557.5 M 0.5 568.5 L 1148.5 568.5 M 0.5 578.5 L 1148.5 578.5 M 0.5 588.5 L 1148.5 588.5 M 0.5 609.5 L 1148.5 609.5 M 0.5 619.5 L 1148.5 619.5 M 0.5 630.5 L 1148.5 630.5 M 0.5 640.5 L 1148.5 640.5 M 0.5 661.5 L 1148.5 661.5 M 0.5 671.5 L 1148.5 671.5 M 0.5 681.5 L 1148.5 681.5 M 0.5 692.5 L 1148.5 692.5 M 0.5 712.5 L 1148.5 712.5 M 0.5 723.5 L 1148.5 723.5 M 0.5 733.5 L 1148.5 733.5 M 0.5 743.5 L 1148.5 743.5 M 0.5 764.5 L 1148.5 764.5"
         stroke-opacity="0.23529411764705882"
         stroke-linecap="round"
         stroke-linejoin="round"
         stroke-miterlimit="10"
         id="path5" />
      <path
         fill="none"
         stroke="rgb(28,28,31)"
         paint-order="fill stroke markers"
         d=" M 856.5 2.5 L 856.5 773.5"
         stroke-opacity="1"
         stroke-miterlimit="10"
         id="path6" />
      <path
         fill="none"
         stroke="rgb(28,28,31)"
         paint-order="fill stroke markers"
         d=" M 856.5 1.5 L 852.5 5.5"
         stroke-opacity="1"
         stroke-miterlimit="10"
         id="path7" />
      <path
         fill="none"
         stroke="rgb(28,28,31)"
         paint-order="fill stroke markers"
         d=" M 856.5 1.5 L 860.5 5.5"
         stroke-opacity="1"
         stroke-miterlimit="10"
         id="path8" />
      <path
         fill="none"
         stroke="rgb(28,28,31)"
         paint-order="fill stroke markers"
         d=" M 0.5 495.5 L 1146.5 495.5"
         stroke-opacity="1"
         stroke-miterlimit="10"
         id="path9" />
      <path
         fill="none"
         stroke="rgb(28,28,31)"
         paint-order="fill stroke markers"
         d=" M 1147.5 495.5 L 1143.5 491.5"
         stroke-opacity="1"
         stroke-miterlimit="10"
         id="path10" />
      <path
         fill="none"
         stroke="rgb(28,28,31)"
         paint-order="fill stroke markers"
         d=" M 1147.5 495.5 L 1143.5 499.5"
         stroke-opacity="1"
         stroke-miterlimit="10"
         id="path11" />
      <text
         fill="rgb(28,28,31)"
         stroke="none"
         font-family="geogebra-sans-serif, sans-serif"
         font-size="12px"
         font-style="normal"
         font-weight="normal"
         text-decoration="normal"
         x="21"
         y="511"
         text-anchor="start"
         dominant-baseline="alphabetic"
         fill-opacity="1"
         id="text11">–16</text>
      <text
         fill="rgb(28,28,31)"
         stroke="none"
         font-family="geogebra-sans-serif, sans-serif"
         font-size="12px"
         font-style="normal"
         font-weight="normal"
         text-decoration="normal"
         x="73"
         y="511"
         text-anchor="start"
         dominant-baseline="alphabetic"
         fill-opacity="1"
         id="text12">–15</text>
      <text
         fill="rgb(28,28,31)"
         stroke="none"
         font-family="geogebra-sans-serif, sans-serif"
         font-size="12px"
         font-style="normal"
         font-weight="normal"
         text-decoration="normal"
         x="125"
         y="511"
         text-anchor="start"
         dominant-baseline="alphabetic"
         fill-opacity="1"
         id="text13">–14</text>
      <text
         fill="rgb(28,28,31)"
         stroke="none"
         font-family="geogebra-sans-serif, sans-serif"
         font-size="12px"
         font-style="normal"
         font-weight="normal"
         text-decoration="normal"
         x="176"
         y="511"
         text-anchor="start"
         dominant-baseline="alphabetic"
         fill-opacity="1"
         id="text14">–13</text>
      <text
         fill="rgb(28,28,31)"
         stroke="none"
         font-family="geogebra-sans-serif, sans-serif"
         font-size="12px"
         font-style="normal"
         font-weight="normal"
         text-decoration="normal"
         x="228"
         y="511"
         text-anchor="start"
         dominant-baseline="alphabetic"
         fill-opacity="1"
         id="text15">–12</text>
      <text
         fill="rgb(28,28,31)"
         stroke="none"
         font-family="geogebra-sans-serif, sans-serif"
         font-size="12px"
         font-style="normal"
         font-weight="normal"
         text-decoration="normal"
         x="280"
         y="511"
         text-anchor="start"
         dominant-baseline="alphabetic"
         fill-opacity="1"
         id="text16">–11</text>
      <text
         fill="rgb(28,28,31)"
         stroke="none"
         font-family="geogebra-sans-serif, sans-serif"
         font-size="12px"
         font-style="normal"
         font-weight="normal"
         text-decoration="normal"
         x="332"
         y="511"
         text-anchor="start"
         dominant-baseline="alphabetic"
         fill-opacity="1"
         id="text17">–10</text>
      <text
         fill="rgb(28,28,31)"
         stroke="none"
         font-family="geogebra-sans-serif, sans-serif"
         font-size="12px"
         font-style="normal"
         font-weight="normal"
         text-decoration="normal"
         x="386"
         y="511"
         text-anchor="start"
         dominant-baseline="alphabetic"
         fill-opacity="1"
         id="text18">–9</text>
      <text
         fill="rgb(28,28,31)"
         stroke="none"
         font-family="geogebra-sans-serif, sans-serif"
         font-size="12px"
         font-style="normal"
         font-weight="normal"
         text-decoration="normal"
         x="438"
         y="511"
         text-anchor="start"
         dominant-baseline="alphabetic"
         fill-opacity="1"
         id="text19">–8</text>
      <text
         fill="rgb(28,28,31)"
         stroke="none"
         font-family="geogebra-sans-serif, sans-serif"
         font-size="12px"
         font-style="normal"
         font-weight="normal"
         text-decoration="normal"
         x="490"
         y="511"
         text-anchor="start"
         dominant-baseline="alphabetic"
         fill-opacity="1"
         id="text20">–7</text>
      <text
         fill="rgb(28,28,31)"
         stroke="none"
         font-family="geogebra-sans-serif, sans-serif"
         font-size="12px"
         font-style="normal"
         font-weight="normal"
         text-decoration="normal"
         x="541"
         y="511"
         text-anchor="start"
         dominant-baseline="alphabetic"
         fill-opacity="1"
         id="text21">–6</text>
      <text
         fill="rgb(28,28,31)"
         stroke="none"
         font-family="geogebra-sans-serif, sans-serif"
         font-size="12px"
         font-style="normal"
         font-weight="normal"
         text-decoration="normal"
         x="593"
         y="511"
         text-anchor="start"
         dominant-baseline="alphabetic"
         fill-opacity="1"
         id="text22">–5</text>
      <text
         fill="rgb(28,28,31)"
         stroke="none"
         font-family="geogebra-sans-serif, sans-serif"
         font-size="12px"
         font-style="normal"
         font-weight="normal"
         text-decoration="normal"
         x="645"
         y="511"
         text-anchor="start"
         dominant-baseline="alphabetic"
         fill-opacity="1"
         id="text23">–4</text>
      <text
         fill="rgb(28,28,31)"
         stroke="none"
         font-family="geogebra-sans-serif, sans-serif"
         font-size="12px"
         font-style="normal"
         font-weight="normal"
         text-decoration="normal"
         x="696"
         y="511"
         text-anchor="start"
         dominant-baseline="alphabetic"
         fill-opacity="1"
         id="text24">–3</text>
      <text
         fill="rgb(28,28,31)"
         stroke="none"
         font-family="geogebra-sans-serif, sans-serif"
         font-size="12px"
         font-style="normal"
         font-weight="normal"
         text-decoration="normal"
         x="748"
         y="511"
         text-anchor="start"
         dominant-baseline="alphabetic"
         fill-opacity="1"
         id="text25">–2</text>
      <text
         fill="rgb(28,28,31)"
         stroke="none"
         font-family="geogebra-sans-serif, sans-serif"
         font-size="12px"
         font-style="normal"
         font-weight="normal"
         text-decoration="normal"
         x="800"
         y="511"
         text-anchor="start"
         dominant-baseline="alphabetic"
         fill-opacity="1"
         id="text26">–1</text>
      <text
         fill="rgb(28,28,31)"
         stroke="none"
         font-family="geogebra-sans-serif, sans-serif"
         font-size="12px"
         font-style="normal"
         font-weight="normal"
         text-decoration="normal"
         x="906"
         y="511"
         text-anchor="start"
         dominant-baseline="alphabetic"
         fill-opacity="1"
         id="text27">1</text>
      <text
         fill="rgb(28,28,31)"
         stroke="none"
         font-family="geogebra-sans-serif, sans-serif"
         font-size="12px"
         font-style="normal"
         font-weight="normal"
         text-decoration="normal"
         x="958"
         y="511"
         text-anchor="start"
         dominant-baseline="alphabetic"
         fill-opacity="1"
         id="text28">2</text>
      <text
         fill="rgb(28,28,31)"
         stroke="none"
         font-family="geogebra-sans-serif, sans-serif"
         font-size="12px"
         font-style="normal"
         font-weight="normal"
         text-decoration="normal"
         x="1009"
         y="511"
         text-anchor="start"
         dominant-baseline="alphabetic"
         fill-opacity="1"
         id="text29">3</text>
      <text
         fill="rgb(28,28,31)"
         stroke="none"
         font-family="geogebra-sans-serif, sans-serif"
         font-size="12px"
         font-style="normal"
         font-weight="normal"
         text-decoration="normal"
         x="1061"
         y="511"
         text-anchor="start"
         dominant-baseline="alphabetic"
         fill-opacity="1"
         id="text30">4</text>
      <text
         fill="rgb(28,28,31)"
         stroke="none"
         font-family="geogebra-sans-serif, sans-serif"
         font-size="12px"
         font-style="normal"
         font-weight="normal"
         text-decoration="normal"
         x="1113"
         y="511"
         text-anchor="start"
         dominant-baseline="alphabetic"
         fill-opacity="1"
         id="text31">5</text>
      <text
         fill="rgb(28,28,31)"
         stroke="none"
         font-family="geogebra-sans-serif, sans-serif"
         font-size="12px"
         font-style="normal"
         font-weight="normal"
         text-decoration="normal"
         x="836"
         y="759"
         text-anchor="start"
         dominant-baseline="alphabetic"
         fill-opacity="1"
         id="text32">–5</text>
      <text
         fill="rgb(28,28,31)"
         stroke="none"
         font-family="geogebra-sans-serif, sans-serif"
         font-size="12px"
         font-style="normal"
         font-weight="normal"
         text-decoration="normal"
         x="836"
         y="707"
         text-anchor="start"
         dominant-baseline="alphabetic"
         fill-opacity="1"
         id="text33">–4</text>
      <text
         fill="rgb(28,28,31)"
         stroke="none"
         font-family="geogebra-sans-serif, sans-serif"
         font-size="12px"
         font-style="normal"
         font-weight="normal"
         text-decoration="normal"
         x="836"
         y="655"
         text-anchor="start"
         dominant-baseline="alphabetic"
         fill-opacity="1"
         id="text34">–3</text>
      <text
         fill="rgb(28,28,31)"
         stroke="none"
         font-family="geogebra-sans-serif, sans-serif"
         font-size="12px"
         font-style="normal"
         font-weight="normal"
         text-decoration="normal"
         x="836"
         y="604"
         text-anchor="start"
         dominant-baseline="alphabetic"
         fill-opacity="1"
         id="text35">–2</text>
      <text
         fill="rgb(28,28,31)"
         stroke="none"
         font-family="geogebra-sans-serif, sans-serif"
         font-size="12px"
         font-style="normal"
         font-weight="normal"
         text-decoration="normal"
         x="836"
         y="552"
         text-anchor="start"
         dominant-baseline="alphabetic"
         fill-opacity="1"
         id="text36">–1</text>
      <text
         fill="rgb(28,28,31)"
         stroke="none"
         font-family="geogebra-sans-serif, sans-serif"
         font-size="12px"
         font-style="normal"
         font-weight="normal"
         text-decoration="normal"
         x="842"
         y="449"
         text-anchor="start"
         dominant-baseline="alphabetic"
         fill-opacity="1"
         id="text37">1</text>
      <text
         fill="rgb(28,28,31)"
         stroke="none"
         font-family="geogebra-sans-serif, sans-serif"
         font-size="12px"
         font-style="normal"
         font-weight="normal"
         text-decoration="normal"
         x="842"
         y="397"
         text-anchor="start"
         dominant-baseline="alphabetic"
         fill-opacity="1"
         id="text38">2</text>
      <text
         fill="rgb(28,28,31)"
         stroke="none"
         font-family="geogebra-sans-serif, sans-serif"
         font-size="12px"
         font-style="normal"
         font-weight="normal"
         text-decoration="normal"
         x="842"
         y="345"
         text-anchor="start"
         dominant-baseline="alphabetic"
         fill-opacity="1"
         id="text39">3</text>
      <text
         fill="rgb(28,28,31)"
         stroke="none"
         font-family="geogebra-sans-serif, sans-serif"
         font-size="12px"
         font-style="normal"
         font-weight="normal"
         text-decoration="normal"
         x="842"
         y="294"
         text-anchor="start"
         dominant-baseline="alphabetic"
         fill-opacity="1"
         id="text40">4</text>
      <text
         fill="rgb(28,28,31)"
         stroke="none"
         font-family="geogebra-sans-serif, sans-serif"
         font-size="12px"
         font-style="normal"
         font-weight="normal"
         text-decoration="normal"
         x="842"
         y="242"
         text-anchor="start"
         dominant-baseline="alphabetic"
         fill-opacity="1"
         id="text41">5</text>
      <text
         fill="rgb(28,28,31)"
         stroke="none"
         font-family="geogebra-sans-serif, sans-serif"
         font-size="12px"
         font-style="normal"
         font-weight="normal"
         text-decoration="normal"
         x="842"
         y="190"
         text-anchor="start"
         dominant-baseline="alphabetic"
         fill-opacity="1"
         id="text42">6</text>
      <text
         fill="rgb(28,28,31)"
         stroke="none"
         font-family="geogebra-sans-serif, sans-serif"
         font-size="12px"
         font-style="normal"
         font-weight="normal"
         text-decoration="normal"
         x="842"
         y="139"
         text-anchor="start"
         dominant-baseline="alphabetic"
         fill-opacity="1"
         id="text43">7</text>
      <text
         fill="rgb(28,28,31)"
         stroke="none"
         font-family="geogebra-sans-serif, sans-serif"
         font-size="12px"
         font-style="normal"
         font-weight="normal"
         text-decoration="normal"
         x="842"
         y="87"
         text-anchor="start"
         dominant-baseline="alphabetic"
         fill-opacity="1"
         id="text44">8</text>
      <text
         fill="rgb(28,28,31)"
         stroke="none"
         font-family="geogebra-sans-serif, sans-serif"
         font-size="12px"
         font-style="normal"
         font-weight="normal"
         text-decoration="normal"
         x="842"
         y="35"
         text-anchor="start"
         dominant-baseline="alphabetic"
         fill-opacity="1"
         id="text45">9</text>
      <text
         fill="rgb(28,28,31)"
         stroke="none"
         font-family="geogebra-sans-serif, sans-serif"
         font-size="12px"
         font-style="normal"
         font-weight="normal"
         text-decoration="normal"
         x="842"
         y="511"
         text-anchor="start"
         dominant-baseline="alphabetic"
         fill-opacity="1"
         id="text46">0</text>
      <path
         fill="none"
         stroke="rgb(0,0,0)"
         paint-order="fill stroke markers"
         d=" M 972.3143247513815 495.88855905545137 C 972.3143247513815 559.7037314692913 920.5819061202185 611.4361501004536 856.7667337063779 611.4361501004536 C 792.9515612925372 611.4361501004536 741.2191426613742 559.7037314692913 741.2191426613742 495.88855905545137 C 741.2191426613742 432.0733866416115 792.9515612925372 380.3409680104491 856.7667337063779 380.3409680104491 C 920.5819061202185 380.3409680104491 972.3143247513815 432.0733866416115 972.3143247513815 495.88855905545137 Z"
         stroke-opacity="0.6980392156862745"
         stroke-linecap="round"
         stroke-linejoin="round"
         stroke-miterlimit="10"
         stroke-width="2.5"
         id="path46" />
      <text
         fill="rgb(0,0,0)"
         stroke="none"
         font-family="geogebra-sans-serif, sans-serif"
         font-size="16px"
         font-style="normal"
         font-weight="normal"
         text-decoration="normal"
         x="798"
         y="417"
         text-anchor="start"
         dominant-baseline="alphabetic"
         fill-opacity="1"
         id="text47">gl1</text>
      <path
         fill="none"
         stroke="rgb(0,0,0)"
         paint-order="fill stroke markers"
         d=" M -5 669.1884171903612 L 332.09420859518457 -5"
         stroke-opacity="0.6980392156862745"
         stroke-linecap="round"
         stroke-linejoin="round"
         stroke-miterlimit="10"
         stroke-width="2.5"
         id="path47" />
      <text
         fill="rgb(0,0,0)"
         stroke="none"
         font-family="geogebra-sans-serif, sans-serif"
         font-size="16px"
         font-style="normal"
         font-weight="normal"
         text-decoration="normal"
         x="8"
         y="653"
         text-anchor="start"
         dominant-baseline="alphabetic"
         fill-opacity="1"
         id="text48">f</text>
      <text
         fill="rgb(0,0,0)"
         stroke="none"
         font-family="geogebra-sans-serif, sans-serif"
         font-size="16px"
         font-style="normal"
         font-weight="normal"
         text-decoration="normal"
         x="502"
         y="300"
         text-anchor="start"
         dominant-baseline="alphabetic"
         fill-opacity="1"
         id="text49">g</text>
      <path
         fill="none"
         stroke="rgb(0,0,0)"
         paint-order="fill stroke markers"
         d=" M 753.4300302234428 444.1897050102863 L 236.71884222404935 185.75073274226816"
         stroke-opacity="0.6980392156862745"
         stroke-linecap="round"
         stroke-linejoin="round"
         stroke-miterlimit="10"
         stroke-width="2.5"
         id="path49" />
      <path
         fill="rgb(125,125,255)"
         stroke="none"
         paint-order="stroke fill markers"
         d=" M 758.4300302234428 444.1897050102863 C 758.4300302234428 446.9511287594402 756.1914539725968 449.1897050102863 753.4300302234428 449.1897050102863 C 750.6686064742888 449.1897050102863 748.4300302234428 446.9511287594402 748.4300302234428 444.1897050102863 C 748.4300302234428 441.4282812611323 750.6686064742888 439.1897050102863 753.4300302234428 439.1897050102863 C 756.1914539725968 439.1897050102863 758.4300302234428 441.4282812611323 758.4300302234428 444.1897050102863 Z"
         fill-opacity="1"
         id="path50" />
      <path
         fill="none"
         stroke="rgb(0,0,0)"
         paint-order="fill stroke markers"
         d=" M 758.4300302234428 444.1897050102863 C 758.4300302234428 446.9511287594402 756.1914539725968 449.1897050102863 753.4300302234428 449.1897050102863 C 750.6686064742888 449.1897050102863 748.4300302234428 446.9511287594402 748.4300302234428 444.1897050102863 C 748.4300302234428 441.4282812611323 750.6686064742888 439.1897050102863 753.4300302234428 439.1897050102863 C 756.1914539725968 439.1897050102863 758.4300302234428 441.4282812611323 758.4300302234428 444.1897050102863 Z"
         stroke-opacity="1"
         stroke-linecap="round"
         stroke-linejoin="round"
         stroke-miterlimit="10"
         id="path51" />
      <text
         fill="rgb(125,125,255)"
         stroke="none"
         font-family="geogebra-sans-serif, sans-serif"
         font-size="16px"
         font-style="normal"
         font-weight="normal"
         text-decoration="normal"
         x="757"
         y="434"
         text-anchor="start"
         dominant-baseline="alphabetic"
         fill-opacity="1"
         id="text51">A</text>
      <path
         fill="rgb(125,125,255)"
         stroke="none"
         paint-order="stroke fill markers"
         d=" M 241.71884222404935 185.75073274226816 C 241.71884222404935 188.51215649142213 239.48026597320333 190.75073274226816 236.71884222404935 190.75073274226816 C 233.95741847489538 190.75073274226816 231.71884222404935 188.51215649142213 231.71884222404935 185.75073274226816 C 231.71884222404935 182.98930899311418 233.95741847489538 180.75073274226816 236.71884222404935 180.75073274226816 C 239.48026597320333 180.75073274226816 241.71884222404935 182.98930899311418 241.71884222404935 185.75073274226816 Z"
         fill-opacity="1"
         id="path52" />
      <path
         fill="none"
         stroke="rgb(0,0,0)"
         paint-order="fill stroke markers"
         d=" M 241.71884222404935 185.75073274226816 C 241.71884222404935 188.51215649142213 239.48026597320333 190.75073274226816 236.71884222404935 190.75073274226816 C 233.95741847489538 190.75073274226816 231.71884222404935 188.51215649142213 231.71884222404935 185.75073274226816 C 231.71884222404935 182.98930899311418 233.95741847489538 180.75073274226816 236.71884222404935 180.75073274226816 C 239.48026597320333 180.75073274226816 241.71884222404935 182.98930899311418 241.71884222404935 185.75073274226816 Z"
         stroke-opacity="1"
         stroke-linecap="round"
         stroke-linejoin="round"
         stroke-miterlimit="10"
         id="path53" />
      <text
         fill="rgb(125,125,255)"
         stroke="none"
         font-family="geogebra-sans-serif, sans-serif"
         font-size="16px"
         font-style="normal"
         font-weight="normal"
         text-decoration="normal"
         x="241"
         y="176"
         text-anchor="start"
         dominant-baseline="alphabetic"
         fill-opacity="1"
         id="text53">B</text>
      <text
         fill="rgb(0,0,0)"
         stroke="none"
         font-family="geogebra-sans-serif, sans-serif"
         font-size="16px"
         font-style="normal"
         font-weight="normal"
         text-decoration="normal"
         x="549"
         y="300"
         text-anchor="start"
         dominant-baseline="alphabetic"
         fill-opacity="1"
         id="text54">11.18</text>
    </g>
  </g>
</svg>
