<?xml version="1.0" encoding="UTF-8" standalone="no"?>
<!-- Created with Inkscape (http://www.inkscape.org/) -->

<svg
   width="240mm"
   height="120mm"
   viewBox="0 0 240 120"
   version="1.1"
   id="svg8"
   inkscape:version="1.3 (0e150ed6c4, 2023-07-21)"
   sodipodi:docname="sandwich-prinzip.svg"
   inkscape:export-filename="sandwich-prinzip.pdf"
   inkscape:export-xdpi="96"
   inkscape:export-ydpi="96"
   xmlns:inkscape="http://www.inkscape.org/namespaces/inkscape"
   xmlns:sodipodi="http://sodipodi.sourceforge.net/DTD/sodipodi-0.dtd"
   xmlns="http://www.w3.org/2000/svg"
   xmlns:svg="http://www.w3.org/2000/svg"
   xmlns:rdf="http://www.w3.org/1999/02/22-rdf-syntax-ns#"
   xmlns:cc="http://creativecommons.org/ns#"
   xmlns:dc="http://purl.org/dc/elements/1.1/">
  <defs
     id="defs2">
    <marker
       style="overflow:visible"
       id="Triangle"
       refX="0"
       refY="0"
       orient="auto-start-reverse"
       inkscape:stockid="Triangle arrow"
       markerWidth="1"
       markerHeight="1"
       viewBox="0 0 1 1"
       inkscape:isstock="true"
       inkscape:collect="always"
       preserveAspectRatio="xMidYMid">
      <path
         transform="scale(0.5)"
         style="fill:context-stroke;fill-rule:evenodd;stroke:context-stroke;stroke-width:1pt"
         d="M 5.77,0 -2.88,5 V -5 Z"
         id="path135" />
    </marker>
  </defs>
  <sodipodi:namedview
     id="base"
     pagecolor="#ffffff"
     bordercolor="#666666"
     borderopacity="1.0"
     inkscape:pageopacity="0.0"
     inkscape:pageshadow="2"
     inkscape:zoom="0.49718694"
     inkscape:cx="271.52765"
     inkscape:cy="309.74265"
     inkscape:document-units="mm"
     inkscape:current-layer="layer1"
     showgrid="false"
     showborder="true"
     width="200mm"
     showguides="true"
     inkscape:guide-bbox="true"
     inkscape:window-width="1368"
     inkscape:window-height="842"
     inkscape:window-x="-6"
     inkscape:window-y="-6"
     inkscape:window-maximized="1"
     inkscape:showpageshadow="2"
     inkscape:pagecheckerboard="0"
     inkscape:deskcolor="#d1d1d1">
    <inkscape:grid
       type="xygrid"
       id="grid815"
       units="mm"
       spacingx="10"
       spacingy="10"
       empspacing="4"
       dotted="false"
       originx="0"
       originy="0"
       visible="false" />
  </sodipodi:namedview>
  <metadata
     id="metadata5">
    <rdf:RDF>
      <cc:Work
         rdf:about="">
        <dc:format>image/svg+xml</dc:format>
        <dc:type
           rdf:resource="http://purl.org/dc/dcmitype/StillImage" />
        <dc:title />
      </cc:Work>
    </rdf:RDF>
  </metadata>
  <g
     inkscape:label="Layer 1"
     inkscape:groupmode="layer"
     id="layer1"
     transform="translate(0,-177)">
    <g
       id="g7"
       transform="matrix(1.9123055,0,0,1.9123055,-136.23991,-206.04199)">
      <path
         style="fill:none;stroke:#000000;stroke-width:0.2;stroke-linecap:round;stroke-linejoin:round;stroke-opacity:1;marker-start:url(#Triangle);paint-order:fill markers stroke"
         d="m 91.531635,203.60803 v 56.14295"
         id="path1" />
      <path
         style="fill:none;stroke:#000000;stroke-width:0.2;stroke-linecap:round;stroke-linejoin:round;stroke-opacity:1;marker-end:url(#Triangle);paint-order:fill markers stroke"
         d="M 84.879626,252.83289 H 183.06327"
         id="path2" />
      <text
         xml:space="preserve"
         style="font-size:3.88056px;line-height:1.25;font-family:sans-serif;stroke-width:0.264583"
         x="181.2007"
         y="259.00821"
         id="text2"><tspan
           sodipodi:role="line"
           id="tspan2"
           style="stroke-width:0.264583"
           x="181.2007"
           y="259.00821">$\mathbb{N}$</tspan></text>
      <path
         style="fill:none;stroke:#0024ce;stroke-width:0.204574;stroke-linecap:round;stroke-linejoin:round;stroke-dasharray:0.204574, 1.63659;stroke-dashoffset:0;stroke-opacity:1;paint-order:fill markers stroke"
         d="m 91.334783,225.54198 c -0.131131,0.75963 0.04879,1.36203 0.196852,2.06962 0.04374,0.20907 -0.07326,0.54254 0,0.75259 0.189726,0.54401 0.764384,1.29503 1.181105,1.69332 0.103747,0.0992 0.289953,0.089 0.393703,0.18815 0.239763,0.22916 0.09221,0.42036 0.393701,0.56444 0.724782,0.34637 1.440152,0.78231 2.165365,1.12888 0.117379,0.0561 0.276322,-0.0561 0.3937,0 0.083,0.0397 0.108817,0.1601 0.196849,0.18815 0.398678,0.12702 1.165996,0 1.574812,0 0.328086,0 0.673007,0.0992 0.98426,0 0.176065,-0.0561 0.227698,-0.29696 0.393697,-0.37629 0.209975,-0.10035 0.577432,0.10034 0.787406,0 0.08297,-0.0397 0.113857,-0.14848 0.196857,-0.18815 0.16755,-0.0801 3.86865,-0.31489 4.13387,-0.18815 0.166,0.0793 0.2277,0.29697 0.3937,0.3763 0.53888,0.25753 1.06096,0.50702 1.57481,0.75259 0.11738,0.0561 0.28451,-0.0696 0.3937,0 0.15442,0.0984 0.24523,0.26986 0.3937,0.37629 0.41901,0.30036 2.36722,0.67637 2.95277,0.56444 0.77971,-0.14905 0.58933,-0.37552 1.18111,-0.75259 0.2023,-0.1289 1.75083,-0.87138 1.96851,-0.94073 0.40978,-0.13055 2.75059,-0.0954 3.14962,0 0.09,0.0215 0.10585,0.17075 0.19685,0.18814 0.25737,0.0492 0.53277,-0.0608 0.7874,0 1.17459,0.28067 0.40169,0.37935 1.37796,0.75259 0.12185,0.0466 0.27632,-0.0561 0.3937,0 0.166,0.0793 0.23928,0.2779 0.3937,0.3763 0.4761,0.30336 1.26918,0.39239 1.77167,0.75259 0.14847,0.10643 0.23928,0.2779 0.3937,0.37629 0.20621,0.1314 1.32469,0.154 1.57481,0.18815 0.75354,0.10288 0.68045,0.28338 1.37795,0.18814 1.42248,-0.19422 2.77134,-0.50663 4.13388,-0.94073 0.42891,-0.13665 0.697,0.0432 1.1811,-0.18815 0.21162,-0.10112 0.36612,-0.30479 0.59056,-0.37629 0.18675,-0.0595 0.39568,0.0266 0.59055,0 1.1353,-0.15502 2.18189,-0.18815 3.34647,-0.18815 0.34255,0 0.85946,-0.10247 1.1811,0 0.27839,0.0887 0.50273,0.30827 0.78741,0.37629 0.12732,0.0304 0.28451,-0.0696 0.39371,0 0.12208,0.0778 0.0748,0.29851 0.19685,0.3763 0.10919,0.0696 0.26751,-0.0345 0.3937,0 1.80776,0.49367 3.54926,1.36336 5.51183,1.12888 1.19518,-0.14279 1.90987,-0.63048 2.95277,-1.12888 0.31605,-0.15104 0.6445,-0.28351 0.98425,-0.3763 0.18928,-0.0517 0.40779,0.0699 0.59056,0 0.17232,-0.0659 0.23928,-0.27789 0.3937,-0.37629 0.70742,-0.45076 2.468,-0.98894 3.34647,-1.12888 0.62321,-0.0993 1.93885,-0.1482 2.55907,0 0.98957,0.23645 0.21884,0.10458 1.1811,0.56444 1.33328,0.63716 2.64025,1.24562 4.13387,1.50518 1.99846,0.34728 4.07869,0.18814 6.1024,0.18814 0.72418,0 1.65376,0.13543 2.3622,0 0.14387,-0.0275 0.25137,-0.15413 0.39371,-0.18814 0.54412,-0.13002 1.24081,0.16912 1.77166,0 0.088,-0.0281 0.10682,-0.16664 0.19685,-0.18815 0.38195,-0.0913 0.79505,0.0738 1.1811,0 0.14389,-0.0275 0.24983,-0.16065 0.39371,-0.18815 0.4504,-0.0861 0.92325,0.0621 1.37796,0 0.41082,-0.0561 0.77416,-0.2985 1.1811,-0.37629 0.43864,-0.0839 0.94485,0.10349 1.37796,0 0.46063,-0.11007 0.89044,-0.29864 1.37796,-0.3763 0.51075,-0.0814 1.06406,0.0814 1.57481,0 0.20468,-0.0326 0.3937,-0.12543 0.59055,-0.18814 0.45932,-0.0627 0.91756,-0.13315 1.37796,-0.18815 0.61402,-0.0734 1.57839,-0.001 2.16536,-0.18815 0.23732,-0.0756 0.38118,-0.31092 0.58641,-0.44762"
         id="path3" />
      <path
         style="fill:none;stroke:#000000;stroke-width:0.2;stroke-linecap:round;stroke-linejoin:round;stroke-dasharray:0.2, 1.6;stroke-dashoffset:0;stroke-opacity:1;paint-order:fill markers stroke"
         d="m 91.531635,203.60803 c 0.820414,0.56082 0.241982,2.20309 0.848643,2.93108 0.200747,0.2409 0.530854,0.34271 0.752588,0.56444 0.198324,0.19833 0.231992,0.51209 0.376296,0.75259 0.188145,0.31358 0.345025,0.64818 0.564441,0.94074 0.212865,0.28382 0.570058,0.44837 0.752589,0.75259 0.279249,0.46542 0.413102,1.05253 0.752589,1.50517 0.664424,0.8859 1.405371,1.7484 2.069618,2.63406 0.368768,0.4917 0.948261,0.82535 1.317032,1.31704 0.135673,0.18089 0.2164,0.40454 0.376293,0.56444 0.08869,0.0887 0.264105,-0.0561 0.376296,0 0.28816,0.14408 0.147132,0.33528 0.37629,0.56444 0.73429,0.73429 0.10105,-0.0436 0.56444,0.18815 0.52104,0.26051 0.98415,0.86836 1.50518,1.12888 0.11219,0.0561 0.26411,-0.0561 0.3763,0 0.31706,0.15853 0.36413,0.43496 0.75259,0.56444 0.11899,0.0397 0.2573,-0.0397 0.37629,0 0.78622,0.26208 1.58217,0.41479 2.25777,0.75259 0.24957,0.12479 0.67377,-0.089 0.94073,0 0.13304,0.0444 0.24025,0.15413 0.3763,0.18815 0.46116,0.11529 1.05503,-0.15005 1.50518,0 0.13304,0.0443 0.24024,0.15413 0.37629,0.18814 0.83582,0.20896 2.47096,0 3.38665,0 1.81876,0 3.63751,0 5.45627,0 0.82051,0 1.832,-0.16041 2.63406,0 0.50954,0.10191 0.99317,0.29097 1.50518,0.3763 0.18558,0.0309 0.38191,-0.0456 0.56444,0 0.086,0.0215 0.1021,0.16663 0.18815,0.18815 0.18252,0.0456 0.37994,-0.0369 0.56444,0 0.33117,0.0662 0.62716,0.25086 0.94073,0.37629 0.20995,0.084 0.34992,0.30479 0.56444,0.3763 0.238,0.0793 0.5146,-0.0793 0.75259,0 0.47192,0.1573 1.39238,0.74509 1.88147,0.94073 0.25244,0.10098 0.66814,0.0973 0.94074,0.18815 0.42242,0.1408 0.51136,0.34975 0.94074,0.56444 0.25865,0.12932 0.68736,0.0868 0.94073,0.18815 1.75484,1.16989 -0.2641,-0.0253 0.94074,0.37629 0.29905,0.0997 0.66042,0.42429 0.94073,0.56444 0.87695,0.43847 3.03627,1.13407 3.9511,1.31703 0.49198,0.0984 1.00551,-0.0454 1.50517,0 2.1537,0.19579 4.22076,0.3763 6.39701,0.3763 0.86615,0 2.00757,-0.20366 2.82221,0 0.38532,0.0963 0.7261,0.2756 1.12888,0.37629 0.23312,0.0583 0.5259,-0.0756 0.75259,0 1.25432,0.41811 -0.43901,-0.10453 0.56444,0.56444 0.26608,0.17739 0.65471,0.0451 0.94074,0.18815 0.49014,0.24507 1.14437,0.5696 1.69332,0.75259 0.119,0.0397 0.25461,-0.0304 0.3763,0 0.2847,0.0712 0.65603,0.30512 0.94073,0.37629 0.44598,0.1115 -0.0836,-0.33448 0.75259,0 0.1647,0.0659 0.2116,0.31042 0.37629,0.3763 0.1747,0.0699 0.38078,-0.0408 0.56445,0 0.3872,0.086 0.74749,0.26732 1.12888,0.37629 0.65852,0.18815 -0.56444,-0.37629 0.56444,0 0.37703,0.12568 0.71782,0.40002 1.12889,0.56444 0.32545,0.13019 0.79505,-0.11127 1.12888,0 0.87004,0.29002 1.33911,0.24506 2.25777,0.3763 0.13882,0.0198 0.23878,0.16064 0.37629,0.18815 0.54343,0.10868 1.14607,-0.0912 1.69332,0 2.25141,0.37523 0.0852,-0.0515 0.94074,0.37629 0.60478,0.30239 2.93934,-0.2059 3.76294,0 0.13605,0.034 0.23879,0.16065 0.3763,0.18815 0.43048,0.0861 0.88399,-0.0722 1.31703,0 0.13833,0.023 0.24024,0.15413 0.37629,0.18814 0.10747,0.0269 1.16231,0.15721 1.31704,0.18815 0.66201,0.1324 1.40087,-0.0955 2.06961,0 1.03467,0.14781 1.97335,0.18815 3.01036,0.18815 1.58141,0 3.12427,-0.18815 4.70368,-0.18815 0.18026,0 1.86912,-0.2482 1.88147,-0.18815 0.12157,0.59101 -0.003,1.20677 -0.004,1.81015"
         id="path4" />
      <path
         style="fill:none;stroke:#000000;stroke-width:0.2;stroke-linecap:round;stroke-linejoin:round;stroke-dasharray:0.2, 1.6;stroke-dashoffset:0;stroke-opacity:1;paint-order:fill markers stroke"
         d="m 91.531635,247.9315 c 0.968163,-0.73985 1.962488,-1.21544 2.918261,-1.69333 0.783024,-0.39151 -0.201136,0.013 0.188148,-0.37629 0.107646,-0.10765 0.746019,0 0.940737,0 1.207008,0 4.186166,0.21639 5.268119,0 0.72255,0.67885 0.60956,-0.31006 0.94074,-0.3763 0.24599,-0.0492 0.50921,0.0608 0.75259,0 0.0608,-0.0152 -0.0561,-0.1601 0,-0.18815 0.11219,-0.0561 0.25461,0.0304 0.37629,0 0.44046,-0.11011 1.09927,-0.36148 1.50518,-0.56444 0.6811,-0.34055 1.36246,-1.08131 2.06962,-1.31703 0.11899,-0.0397 0.27193,0.0696 0.37629,0 0.11669,-0.0778 0.089,-0.27713 0.18815,-0.37629 0.20203,-0.20203 0.85592,-0.47345 1.12888,-0.56444 0.34755,-0.11585 0.0892,0.28709 0.56445,-0.18815 0.0992,-0.0992 0.089,-0.27713 0.18814,-0.37629 0.58861,-0.58861 1.49715,-0.93271 2.06962,-1.50518 0.38929,-0.38929 -0.59487,0.0152 0.18815,-0.3763 0.25086,-0.12543 0.48651,-0.2876 0.75259,-0.37629 0.11899,-0.0397 0.27193,0.0696 0.37629,0 0.11669,-0.0778 0.0715,-0.29851 0.18815,-0.3763 0.56444,-0.37629 0.18815,0.18815 0.56444,0 0.7198,-0.35989 1.78459,-0.18814 2.63406,-0.18814 1.48978,0 3.26186,-0.24031 4.70368,0 1.30548,0.21758 2.47531,0.2146 3.76295,0 0.24745,-0.0412 0.50921,0.0608 0.75258,0 0.6994,-0.17485 1.38977,-0.39448 2.06962,-0.56444 0.21889,-0.0547 0.53457,0.0727 0.75259,0 0.96429,-0.32143 1.85908,-0.80784 2.82221,-1.12889 0.38757,-0.12919 0.92171,-0.0564 1.31703,-0.18814 0.31849,-0.10617 0.61579,-0.29506 0.94074,-0.3763 0.43267,-0.10817 1.11373,0.19572 1.50518,0 0.0793,-0.0397 0.1021,-0.16663 0.18814,-0.18814 0.92148,-0.23037 2.26198,0 3.1985,0 2.63407,0 5.26813,0 7.90219,0 0.74148,0 2.65305,0.20959 3.38665,0 0.26968,-0.0771 0.48651,-0.28761 0.75259,-0.3763 0.29748,-0.0992 0.63031,0.0444 0.94073,0 0.54126,-0.0773 0.98012,-0.28879 1.50518,-0.37629 0.63026,-0.10505 1.46729,0.20077 2.06962,0 0.13304,-0.0444 0.24325,-0.1438 0.37629,-0.18815 0.36196,-0.12065 5.36625,-0.11658 5.83257,0 0.13605,0.034 0.24024,0.15413 0.37629,0.18815 0.34737,0.0868 0.7902,-0.1129 1.12888,0 1.18633,0.39544 -0.82691,-0.0149 1.12889,0.37629 0.53288,0.10658 1.1722,-0.14889 1.69332,0 0.32474,0.0928 0.616,0.28351 0.94074,0.3763 0.79174,0.22621 1.99875,0 2.82221,0 2.06961,0 4.13924,0 6.20885,0 0.45225,0 -0.0793,0.0198 0.75259,-0.18815 0.63597,-0.159 1.41857,0.093 2.06962,0 1.46389,-0.20913 2.8763,-0.57797 4.32739,-0.94074 0.15614,-0.039 0.42191,0.0713 0.56444,0 0.44097,-0.22048 0.87606,-0.34396 1.31703,-0.56444 0.11219,-0.0561 0.43611,0.11025 0.37629,0 -0.52529,-0.96824 -1.14617,-1.88147 -1.71925,-2.82221"
         id="path5" />
      <text
         xml:space="preserve"
         style="font-size:3.88056px;line-height:1.25;font-family:sans-serif;fill:#0700ca;fill-opacity:1;stroke-width:0.264583"
         x="86.076988"
         y="230.17125"
         id="text5"><tspan
           sodipodi:role="line"
           id="tspan5"
           style="fill:#0700ca;fill-opacity:1;stroke-width:0.264583"
           x="86.076988"
           y="230.17125">z</tspan></text>
      <text
         xml:space="preserve"
         style="font-size:3.88056px;line-height:1.25;font-family:sans-serif;stroke-width:0.264583"
         x="86.139519"
         y="247.9315"
         id="text6"><tspan
           sodipodi:role="line"
           id="tspan6"
           style="stroke-width:0.264583"
           x="86.139519"
           y="247.9315">x</tspan></text>
      <text
         xml:space="preserve"
         style="font-size:3.88056px;line-height:1.25;font-family:sans-serif;stroke-width:0.264583"
         x="85.959511"
         y="206.00275"
         id="text7"><tspan
           sodipodi:role="line"
           id="tspan7"
           style="stroke-width:0.264583"
           x="85.959511"
           y="206.00275">y</tspan></text>
    </g>
  </g>
</svg>
